<?xml version="1.0" encoding="UTF-8" standalone="no"?><!DOCTYPE svg PUBLIC "-//W3C//DTD SVG 1.1//EN" "http://www.w3.org/Graphics/SVG/1.1/DTD/svg11.dtd"><svg width="100%" height="100%" viewBox="0 0 30 30" version="1.1" xmlns="http://www.w3.org/2000/svg" xmlns:xlink="http://www.w3.org/1999/xlink" xml:space="preserve" xmlns:serif="http://www.serif.com/" style="fill-rule:evenodd;clip-rule:evenodd;stroke-linejoin:round;stroke-miterlimit:1.41421;"><path d="M12.6,2.451c0.156,0.192 0.252,0.428 0.275,0.677c0.023,0.248 -0.028,0.498 -0.147,0.717c-0.925,1.725 -1.408,3.658 -1.405,5.623c0,6.534 5.245,11.825 11.709,11.825c0.844,0 1.664,-0.089 2.453,-0.26c0.242,-0.053 0.494,-0.032 0.724,0.059c0.231,0.091 0.43,0.249 0.572,0.455c0.151,0.214 0.227,0.472 0.218,0.734c-0.009,0.262 -0.103,0.515 -0.267,0.717c-1.255,1.566 -2.838,2.827 -4.634,3.693c-1.796,0.865 -3.76,1.312 -5.747,1.309c-7.376,0 -13.351,-6.035 -13.351,-13.472c0,-5.597 3.382,-10.397 8.199,-12.432c0.239,-0.103 0.506,-0.124 0.759,-0.06c0.252,0.064 0.478,0.209 0.642,0.415Z" style="fill:#3e3e3e;fill-rule:nonzero;"/></svg>