<?xml version="1.0" encoding="UTF-8" standalone="no"?><!DOCTYPE svg PUBLIC "-//W3C//DTD SVG 1.1//EN" "http://www.w3.org/Graphics/SVG/1.1/DTD/svg11.dtd"><svg width="100%" height="100%" viewBox="0 0 30 30" version="1.1" xmlns="http://www.w3.org/2000/svg" xmlns:xlink="http://www.w3.org/1999/xlink" xml:space="preserve" xmlns:serif="http://www.serif.com/" style="fill-rule:evenodd;clip-rule:evenodd;stroke-linejoin:round;stroke-miterlimit:1.41421;"><path d="M13.929,1.071c-0.001,-0.591 0.479,-1.071 1.071,-1.071c0.592,0 1.071,0.48 1.071,1.071l0,3.215c0,0.591 -0.479,1.071 -1.071,1.071c-0.592,0 -1.072,-0.48 -1.072,-1.071l0,-3.215Z" style="fill:#fff;fill-rule:nonzero;"/><path d="M21.851,8.15c-0.419,-0.418 -0.419,-1.096 0,-1.515l2.241,-2.241c0.418,-0.419 1.097,-0.419 1.516,0c0.418,0.418 0.418,1.097 -0.001,1.515l-2.241,2.241c-0.419,0.419 -1.097,0.419 -1.515,0Z" style="fill:#fff;fill-rule:nonzero;"/><path d="M24.643,15c0,-0.592 0.479,-1.071 1.071,-1.071l3.214,0c0.592,0 1.072,0.479 1.072,1.071c0,0.592 -0.48,1.071 -1.072,1.071l-3.214,0c-0.592,0 -1.071,-0.479 -1.071,-1.071Z" style="fill:#fff;fill-rule:nonzero;"/><path d="M21.851,23.365c-0.419,-0.419 -0.419,-1.097 0,-1.515c0.418,-0.419 1.096,-0.419 1.515,0l2.241,2.241c0.419,0.418 0.419,1.097 0.001,1.515c-0.419,0.419 -1.098,0.419 -1.516,0l-2.241,-2.241Z" style="fill:#fff;fill-rule:nonzero;"/><path d="M13.929,25.714c-0.001,-0.592 0.479,-1.071 1.071,-1.071c0.592,0 1.071,0.479 1.071,1.071l0,3.215c0,0.591 -0.479,1.071 -1.071,1.071c-0.592,0 -1.072,-0.48 -1.072,-1.071l0,-3.215Z" style="fill:#fff;fill-rule:nonzero;"/><path d="M4.394,25.606c-0.419,-0.418 -0.418,-1.097 0,-1.515l2.241,-2.241c0.418,-0.418 1.097,-0.418 1.516,0c0.418,0.419 0.418,1.097 -0.001,1.516l-2.24,2.241c-0.419,0.418 -1.098,0.418 -1.516,-0.001Z" style="fill:#fff;fill-rule:nonzero;"/><path d="M0,15c0,-0.592 0.48,-1.071 1.071,-1.071l3.215,0c0.591,0 1.071,0.479 1.071,1.071c0,0.592 -0.48,1.071 -1.071,1.071l-3.215,0c-0.591,0 -1.071,-0.479 -1.071,-1.071Z" style="fill:#fff;fill-rule:nonzero;"/><path d="M4.394,5.909c-0.418,-0.418 -0.419,-1.097 0,-1.515c0.418,-0.419 1.097,-0.419 1.515,0l2.242,2.241c0.418,0.419 0.418,1.097 -0.001,1.515c-0.418,0.419 -1.096,0.419 -1.515,0l-2.241,-2.241Z" style="fill:#fff;fill-rule:nonzero;"/><path d="M15,8.571c-1.271,0 -2.514,0.377 -3.571,1.084c-1.058,0.706 -1.882,1.71 -2.368,2.885c-0.487,1.175 -0.614,2.467 -0.366,3.714c0.248,1.247 0.86,2.393 1.759,3.292c0.899,0.899 2.045,1.511 3.292,1.759c1.247,0.248 2.539,0.121 3.714,-0.366c1.175,-0.486 2.179,-1.31 2.885,-2.367c0.707,-1.058 1.084,-2.301 1.084,-3.572c0,-1.705 -0.678,-3.34 -1.883,-4.546c-1.206,-1.205 -2.841,-1.883 -4.546,-1.883Z" style="fill:#fff;fill-rule:nonzero;"/></svg>