<?xml version="1.0" encoding="UTF-8" standalone="no"?><!DOCTYPE svg PUBLIC "-//W3C//DTD SVG 1.1//EN" "http://www.w3.org/Graphics/SVG/1.1/DTD/svg11.dtd"><svg width="100%" height="100%" viewBox="0 0 40 40" version="1.1" xmlns="http://www.w3.org/2000/svg" xmlns:xlink="http://www.w3.org/1999/xlink" xml:space="preserve" xmlns:serif="http://www.serif.com/" style="fill-rule:evenodd;clip-rule:evenodd;stroke-linejoin:round;stroke-miterlimit:1.41421;"><path d="M39.323,29.04c-1.897,3.445 -4.805,6.266 -8.355,8.108c-3.551,1.843 -7.585,2.623 -11.593,2.242c-4.008,-0.381 -7.81,-1.906 -10.924,-4.382c-3.114,-2.475 -5.401,-5.791 -6.572,-9.527c-1.17,-3.736 -1.172,-7.724 -0.005,-11.461c1.167,-3.737 3.451,-7.055 6.563,-9.533c3.112,-2.479 6.912,-4.007 10.919,-4.391c4.008,-0.385 8.043,0.392 11.595,2.231l-2.411,4.378c-2.659,-1.376 -5.68,-1.957 -8.68,-1.67c-3,0.288 -5.844,1.432 -8.173,3.287c-2.33,1.856 -4.04,4.339 -4.913,7.136c-0.874,2.798 -0.873,5.784 0.004,8.58c0.876,2.797 2.588,5.279 4.919,7.132c2.331,1.853 5.177,2.995 8.177,3.28c3,0.285 6.02,-0.299 8.678,-1.678c2.658,-1.379 4.835,-3.491 6.255,-6.069l4.516,2.337Z" style="fill:#3e3e3e;fill-rule:nonzero;"/><path d="M20.742,30.194c5.772,0 10.452,-4.68 10.452,-10.452c-0.001,-5.772 -4.68,-10.452 -10.452,-10.452c-5.772,0 -10.452,4.68 -10.452,10.452c0,5.772 4.68,10.452 10.452,10.452Z" style="fill:#f3525a;fill-rule:nonzero;"/></svg>