<?xml version="1.0" encoding="UTF-8" standalone="no"?><!DOCTYPE svg PUBLIC "-//W3C//DTD SVG 1.1//EN" "http://www.w3.org/Graphics/SVG/1.1/DTD/svg11.dtd"><svg width="100%" height="100%" viewBox="0 0 38 38" version="1.1" xmlns="http://www.w3.org/2000/svg" xmlns:xlink="http://www.w3.org/1999/xlink" xml:space="preserve" xmlns:serif="http://www.serif.com/" style="fill-rule:evenodd;clip-rule:evenodd;stroke-linejoin:round;stroke-miterlimit:1.41421;"><path d="M5.844,9.962c2.221,-2.408 5.583,-3.629 9.989,-3.629l1.584,0l0,4.464l-1.273,0.255c-2.17,0.433 -3.678,1.287 -4.486,2.539c-0.421,0.675 -0.66,1.447 -0.693,2.242l4.868,0c0.42,0 0.823,0.167 1.12,0.464c0.297,0.297 0.464,0.7 0.464,1.12l0,11.083c0,1.746 -1.421,3.167 -3.167,3.167l-9.5,0c-0.42,0 -0.823,-0.167 -1.12,-0.464c-0.297,-0.297 -0.463,-0.7 -0.463,-1.12l0,-7.916l0.004,-4.622c-0.014,-0.176 -0.315,-4.34 2.673,-7.583Zm25.823,21.705l-9.5,0c-0.42,0 -0.823,-0.167 -1.12,-0.464c-0.297,-0.297 -0.464,-0.7 -0.464,-1.12l0,-7.916l0.005,-4.622c-0.014,-0.176 -0.315,-4.34 2.673,-7.583c2.221,-2.408 5.583,-3.629 9.989,-3.629l1.583,0l0,4.464l-1.273,0.255c-2.169,0.433 -3.678,1.287 -4.485,2.539c-0.422,0.675 -0.661,1.447 -0.694,2.242l4.869,0c0.42,0 0.823,0.167 1.12,0.464c0.297,0.297 0.463,0.7 0.463,1.12l0,11.083c0,1.746 -1.42,3.167 -3.166,3.167Z" style="fill:#f3525a;fill-rule:nonzero;"/></svg>