<?xml version="1.0" encoding="UTF-8" standalone="no"?><!DOCTYPE svg PUBLIC "-//W3C//DTD SVG 1.1//EN" "http://www.w3.org/Graphics/SVG/1.1/DTD/svg11.dtd"><svg width="100%" height="100%" viewBox="0 0 512 512" version="1.1" xmlns="http://www.w3.org/2000/svg" xmlns:xlink="http://www.w3.org/1999/xlink" xml:space="preserve" xmlns:serif="http://www.serif.com/" style="fill-rule:evenodd;clip-rule:evenodd;stroke-linejoin:round;stroke-miterlimit:1.41421;"><g id="_02_User"><path d="M25,512c-0.002,0 -0.003,0 -0.005,0c-13.714,0 -25,-11.285 -25,-25c0,-6.629 2.637,-12.993 7.325,-17.68l462,-462c4.687,-4.687 11.051,-7.323 17.68,-7.323c13.716,0 25.003,11.287 25.003,25.003c0,6.629 -2.636,12.993 -7.323,17.68l-462,462c-4.683,4.693 -11.05,7.329 -17.68,7.32Z" style="fill:#3e3e3e;fill-rule:nonzero;"/><path d="M487,512c-6.63,0.009 -12.997,-2.627 -17.68,-7.32l-462,-462c-4.687,-4.687 -7.323,-11.051 -7.323,-17.68c0,-13.716 11.287,-25.003 25.003,-25.003c6.629,0 12.993,2.636 17.68,7.323l462,462c4.688,4.687 7.325,11.051 7.325,17.68c0,13.715 -11.286,25 -25,25c-0.002,0 -0.003,0 -0.005,0Z" style="fill:#3e3e3e;fill-rule:nonzero;"/></g></svg>