<?xml version="1.0" encoding="UTF-8" standalone="no"?><!DOCTYPE svg PUBLIC "-//W3C//DTD SVG 1.1//EN" "http://www.w3.org/Graphics/SVG/1.1/DTD/svg11.dtd"><svg width="100%" height="100%" viewBox="0 0 22 22" version="1.1" xmlns="http://www.w3.org/2000/svg" xmlns:xlink="http://www.w3.org/1999/xlink" xml:space="preserve" xmlns:serif="http://www.serif.com/" style="fill-rule:evenodd;clip-rule:evenodd;stroke-linejoin:round;stroke-miterlimit:1.41421;"><path d="M6.193,20.729l-3.883,0l0,-12.504l3.883,0l0,12.504Zm-1.944,-14.21c-1.242,0 -2.249,-1.029 -2.249,-2.27c0,-0.597 0.237,-1.169 0.659,-1.59c0.421,-0.422 0.993,-0.659 1.59,-0.659c0.596,0 1.168,0.237 1.59,0.659c0.422,0.421 0.659,0.993 0.659,1.59c0,1.241 -1.008,2.27 -2.249,2.27Zm16.476,14.21l-3.875,0l0,-6.087c0,-1.451 -0.029,-3.311 -2.018,-3.311c-2.019,0 -2.329,1.576 -2.329,3.207l0,6.191l-3.878,0l0,-12.504l3.723,0l0,1.705l0.054,0c0.519,-0.982 1.785,-2.019 3.674,-2.019c3.93,0 4.652,2.588 4.652,5.949l0,6.869l-0.003,0Z" style="fill:#8f8f8f;fill-rule:nonzero;"/></svg>