<?xml version="1.0" encoding="UTF-8" standalone="no"?><!DOCTYPE svg PUBLIC "-//W3C//DTD SVG 1.1//EN" "http://www.w3.org/Graphics/SVG/1.1/DTD/svg11.dtd"><svg width="100%" height="100%" viewBox="0 0 40 40" version="1.1" xmlns="http://www.w3.org/2000/svg" xmlns:xlink="http://www.w3.org/1999/xlink" xml:space="preserve" xmlns:serif="http://www.serif.com/" style="fill-rule:evenodd;clip-rule:evenodd;stroke-linejoin:round;stroke-miterlimit:1.41421;"><path d="M39.323,29.332c-1.897,3.36 -4.805,6.113 -8.355,7.91c-3.551,1.798 -7.585,2.559 -11.593,2.187c-4.008,-0.372 -7.81,-1.859 -10.924,-4.275c-3.114,-2.415 -5.401,-5.65 -6.572,-9.294c-1.17,-3.645 -1.172,-7.536 -0.005,-11.182c1.167,-3.646 3.451,-6.883 6.563,-9.301c3.112,-2.418 6.912,-3.908 10.919,-4.283c4.008,-0.375 8.043,0.382 11.595,2.176l-2.411,4.272c-2.659,-1.343 -5.68,-1.91 -8.68,-1.629c-3,0.28 -5.844,1.396 -8.173,3.206c-2.33,1.81 -4.04,4.233 -4.913,6.962c-0.874,2.729 -0.873,5.643 0.004,8.371c0.876,2.728 2.588,5.15 4.919,6.958c2.331,1.808 5.177,2.921 8.177,3.2c3,0.278 6.02,-0.292 8.678,-1.637c2.658,-1.346 4.835,-3.406 6.255,-5.922l4.516,2.281Z" style="fill:#fafafa;fill-rule:nonzero;"/><path d="M20.452,30.394c5.772,-0.001 10.451,-4.566 10.451,-10.197c0,-5.632 -4.679,-10.197 -10.451,-10.197c-5.773,0 -10.452,4.565 -10.452,10.197c0,5.631 4.679,10.196 10.452,10.196Z" style="fill:#f3525a;fill-rule:nonzero;"/></svg>