<?xml version="1.0" encoding="UTF-8" standalone="no"?><!DOCTYPE svg PUBLIC "-//W3C//DTD SVG 1.1//EN" "http://www.w3.org/Graphics/SVG/1.1/DTD/svg11.dtd"><svg width="100%" height="100%" viewBox="0 0 384 384" version="1.1" xmlns="http://www.w3.org/2000/svg" xmlns:xlink="http://www.w3.org/1999/xlink" xml:space="preserve" xmlns:serif="http://www.serif.com/" style="fill-rule:evenodd;clip-rule:evenodd;stroke-linejoin:round;stroke-miterlimit:1.41421;"><path d="M368,207.668l-352,0c-8.832,0 -16,-7.168 -16,-16c0,-8.832 7.168,-16 16,-16l352,0c8.832,0 16,7.168 16,16c0,8.832 -7.168,16 -16,16Z" style="fill:#fff;fill-rule:nonzero;"/><path d="M368,85l-352,0c-8.832,0 -16,-7.168 -16,-16c0,-8.832 7.168,-16 16,-16l352,0c8.832,0 16,7.168 16,16c0,8.832 -7.168,16 -16,16Z" style="fill:#fff;fill-rule:nonzero;stroke:#fff;stroke-width:1px;"/><path d="M368,330.332l-352,0c-8.832,0 -16,-7.168 -16,-16c0,-8.832 7.168,-16 16,-16l352,0c8.832,0 16,7.168 16,16c0,8.832 -7.168,16 -16,16Z" style="fill:#fff;fill-rule:nonzero;"/></svg>