<?xml version="1.0" encoding="UTF-8" standalone="no"?><!DOCTYPE svg PUBLIC "-//W3C//DTD SVG 1.1//EN" "http://www.w3.org/Graphics/SVG/1.1/DTD/svg11.dtd"><svg width="100%" height="100%" viewBox="0 0 22 22" version="1.1" xmlns="http://www.w3.org/2000/svg" xmlns:xlink="http://www.w3.org/1999/xlink" xml:space="preserve" xmlns:serif="http://www.serif.com/" style="fill-rule:evenodd;clip-rule:evenodd;stroke-linejoin:round;stroke-miterlimit:1.41421;"><path d="M21.25,4.953c-0.745,0.33 -1.545,0.553 -2.386,0.653c0.868,-0.519 1.517,-1.336 1.827,-2.299c-0.815,0.485 -1.708,0.825 -2.638,1.008c-0.626,-0.668 -1.455,-1.111 -2.358,-1.26c-0.903,-0.149 -1.83,0.005 -2.637,0.437c-0.807,0.432 -1.449,1.119 -1.826,1.953c-0.377,0.834 -0.468,1.769 -0.259,2.66c-1.652,-0.083 -3.268,-0.512 -4.743,-1.26c-1.475,-0.748 -2.777,-1.798 -3.82,-3.081c-0.357,0.615 -0.562,1.329 -0.562,2.089c0,0.684 0.168,1.357 0.491,1.96c0.322,0.604 0.788,1.118 1.357,1.498c-0.66,-0.021 -1.305,-0.199 -1.882,-0.52l0,0.054c0,0.959 0.332,1.889 0.94,2.631c0.607,0.743 1.453,1.253 2.393,1.443c-0.612,0.165 -1.254,0.19 -1.876,0.071c0.265,0.825 0.782,1.547 1.478,2.065c0.696,0.517 1.536,0.803 2.403,0.819c-1.472,1.155 -3.289,1.782 -5.16,1.779c-0.332,0 -0.663,-0.019 -0.992,-0.058c1.899,1.221 4.11,1.869 6.368,1.867c7.643,0 11.821,-6.33 11.821,-11.82c0,-0.179 -0.004,-0.359 -0.012,-0.537c0.812,-0.588 1.514,-1.316 2.071,-2.15l0.002,-0.002Z" style="fill:#8f8f8f;fill-rule:nonzero;"/></svg>